<?xml version="1.0" standalone="no"?>
<!DOCTYPE svg PUBLIC "-//W3C//DTD SVG 20010904//EN"
 "http://www.w3.org/TR/2001/REC-SVG-20010904/DTD/svg10.dtd">
<svg version="1.0" xmlns="http://www.w3.org/2000/svg"
 width="379.000000pt" height="377.000000pt" viewBox="0 0 379.000000 377.000000"
 preserveAspectRatio="xMidYMid meet">
 <rect width="100%" height="100%" fill="#ffffff" rx="20" ry="20"/>
<g transform="translate(0.000000,377.000000) scale(0.100000,-0.100000)"
fill="#000000" stroke="none">
<path d="M3275 3622 c-273 -164 -473 -314 -652 -486 -443 -427 -654 -887 -655
-1426 -1 -129 21 -361 38 -404 14 -37 -23 -9 -138 107 -190 189 -293 349 -423
657 -152 360 -243 472 -428 525 -31 9 -57 21 -57 26 0 23 77 160 127 226 62
82 104 118 183 158 143 73 319 28 494 -126 25 -22 46 -37 46 -33 0 19 -66 107
-115 153 -136 129 -315 154 -484 70 -79 -40 -183 -151 -236 -253 l-40 -77
-160 -98 c-88 -54 -259 -158 -380 -231 -247 -149 -290 -180 -165 -119 204 99
426 171 586 190 158 19 288 -15 360 -93 49 -53 70 -87 192 -317 206 -389 347
-580 594 -806 65 -60 66 -60 97 -170 88 -302 272 -666 472 -933 98 -131 102
-126 14 22 -67 114 -185 353 -248 502 -65 156 -155 424 -142 424 3 0 35 -20
72 -44 74 -48 250 -138 353 -181 256 -108 610 -194 926 -226 106 -10 127 -9
177 5 115 34 88 46 -179 80 -442 56 -802 154 -1104 299 -79 38 -252 136 -268
152 -8 8 -40 177 -52 278 -18 144 -8 465 19 585 98 444 357 810 764 1084 110
74 285 178 299 178 20 0 100 75 148 140 70 94 133 240 103 240 -5 0 -67 -35
-138 -78z m35 -38 c0 -24 -40 -75 -52 -68 -7 4 -8 2 -4 -4 3 -6 -3 -16 -14
-22 -11 -6 -20 -7 -20 -3 0 4 -7 -2 -15 -14 -20 -29 -105 -75 -127 -70 -10 3
-18 1 -18 -4 0 -14 -20 -10 -26 5 -5 13 27 56 42 56 3 0 23 15 45 33 44 38
108 62 123 47 6 -6 17 -10 26 -9 8 0 4 5 -10 10 l-25 10 30 25 c35 28 45 30
45 8z m-276 -193 c3 -4 -6 -18 -19 -31 -20 -19 -27 -21 -40 -10 -13 11 -15 10
-10 -2 3 -8 -2 -21 -12 -29 -16 -13 -17 -12 -4 4 10 12 10 17 1 17 -6 0 -1 13
12 29 22 29 61 40 72 22z m-2154 -763 c0 -10 -5 -18 -11 -18 -8 0 -8 -5 1 -15
10 -12 9 -16 -4 -21 -9 -4 -19 -4 -23 -1 -3 3 -12 -1 -21 -10 -14 -14 -16 -13
-24 6 -4 11 -12 21 -18 21 -5 0 -10 5 -10 10 0 6 9 10 19 10 10 0 29 8 41 18
13 10 29 19 37 19 7 0 13 -9 13 -19z"/>
<path d="M3069 3433 c-13 -16 -12 -17 4 -4 16 13 21 21 13 21 -2 0 -10 -8 -17
-17z"/>
<path d="M3165 3273 c-71 -36 -268 -166 -345 -226 -301 -236 -523 -561 -606
-887 -33 -129 -29 -143 9 -35 85 240 246 433 550 661 78 58 168 132 200 163
73 70 257 317 257 345 0 10 -13 6 -65 -21z m45 1 c0 -12 -112 -142 -152 -175
-24 -19 -77 -53 -118 -75 -41 -21 -76 -42 -78 -46 -2 -5 -8 -8 -13 -8 -5 0 -2
14 6 31 9 17 14 36 11 42 -2 7 -5 4 -5 -5 -1 -12 -6 -15 -18 -11 -12 5 -14 3
-8 -7 5 -8 4 -11 -2 -7 -6 4 -30 -10 -54 -29 -40 -32 -39 -31 6 11 81 75 184
150 300 220 102 61 125 72 125 59z m-440 -359 c-7 -9 -15 -13 -19 -10 -3 3 1
10 9 15 21 14 24 12 10 -5z m-30 -19 c0 -3 -4 -8 -10 -11 -5 -3 -10 -1 -10 4
0 6 5 11 10 11 6 0 10 -2 10 -4z"/>
<path d="M3140 3239 c-46 -28 -45 -26 -27 -43 13 -13 18 -10 46 25 36 44 32
48 -19 18z"/>
<path d="M2886 3063 c-6 -14 -5 -15 5 -6 7 7 10 15 7 18 -3 3 -9 -2 -12 -12z"/>
<path d="M1340 2811 c-16 -31 4 -63 37 -59 34 4 52 32 37 56 -16 26 -60 28
-74 3z"/>
<path d="M2591 2284 c-125 -94 -248 -252 -316 -406 -13 -32 -23 -58 -21 -58 2
0 27 31 55 70 29 38 93 107 144 152 160 145 198 190 221 266 11 35 -15 28 -83
-24z m49 2 c0 -23 -156 -174 -167 -162 -12 11 142 176 164 176 1 0 3 -6 3 -14z"/>
<path d="M2380 2270 c-6 -11 -8 -20 -6 -20 3 0 10 9 16 20 6 11 8 20 6 20 -3
0 -10 -9 -16 -20z"/>
<path d="M2350 2240 c8 -5 10 -10 4 -10 -14 0 -36 -48 -25 -54 9 -6 42 60 34
68 -4 3 -11 6 -17 6 -6 0 -4 -5 4 -10z"/>
<path d="M2220 1919 c0 -5 5 -7 10 -4 6 3 10 8 10 11 0 2 -4 4 -10 4 -5 0 -10
-5 -10 -11z"/>
<path d="M2430 891 c47 -37 374 -220 530 -295 312 -151 469 -178 590 -101 32
20 80 73 80 88 0 2 -50 5 -111 5 -244 3 -658 108 -936 237 -51 24 -93 41 -93
37 0 -4 -4 -2 -8 4 -4 6 -23 19 -42 28 l-35 17 25 -20z m907 -317 c-3 -3 -12
-4 -19 -1 -8 3 -5 6 6 6 11 1 17 -2 13 -5z m263 -12 c0 -5 -8 -16 -17 -23 -16
-13 -17 -12 -4 4 13 16 8 17 -72 17 -47 0 -88 -4 -91 -9 -3 -5 -15 -7 -26 -4
-11 3 -18 9 -15 13 7 11 225 13 225 2z m-140 -30 c0 -7 4 -11 9 -8 5 3 15 -2
22 -11 13 -14 8 -15 -49 -11 -64 6 -98 18 -49 18 17 0 27 5 27 14 0 9 9 14 20
13 11 -1 20 -7 20 -15z m90 -12 c-8 -5 -19 -10 -25 -10 -5 0 -3 5 5 10 8 5 20
10 25 10 6 0 3 -5 -5 -10z"/>
<path d="M2458 724 c36 -67 234 -274 336 -350 128 -96 282 -145 361 -114 l30
12 -61 22 c-132 48 -327 172 -544 345 -133 107 -134 108 -122 85z m577 -414
c82 -32 87 -35 56 -38 -44 -4 -112 22 -142 55 -13 14 -19 24 -14 22 6 -2 50
-20 100 -39z"/>
<path d="M2436 657 c3 -10 9 -15 12 -12 3 3 0 11 -7 18 -10 9 -11 8 -5 -6z"/>
<path d="M2410 578 c0 -15 24 -58 32 -58 8 0 1 17 -22 50 -5 8 -10 12 -10 8z"/>
<path d="M3010 485 c0 -2 10 -10 23 -16 20 -11 21 -11 8 4 -13 16 -31 23 -31
12z"/>
<path d="M2499 405 c5 -11 17 -29 26 -40 l16 -20 -10 20 c-5 11 -17 29 -26 40
l-16 20 10 -20z"/>
</g>
</svg>
